inDegrees=no
num_controls=7
num_derivatives=13
num_iterations=124
num_multipliers=7
num_parameters=0
num_slacks=7
num_states=26
objective=5.329296
objective_accelerations=0.441065
objective_balance=0.017413
objective_effort=0.379787
objective_height=4.397515
objective_ligament=0.093516
solver_duration=1031.671558
status=Solve_Succeeded
success=true
DataType=double
version=3
OpenSimVersion=4.4-2022-07-23-0e9fedc
endheader
time	/jointset/ground_pelvis/pelvis_tilt/value	/jointset/ground_pelvis/pelvis_tx/value	/jointset/ground_pelvis/pelvis_ty/value	/jointset/hip_r/hip_flexion_r/value	/jointset/hip_r/hip_adduction_r/value	/jointset/hip_r/hip_rotation_r/value	/jointset/back/lumbar_extension/value	/jointset/patellofemoral_r/patellar_flexion_r/value	/jointset/knee_r/knee_flexion_r/value	/jointset/knee_r/knee_adduction_r/value	/jointset/knee_r/knee_rotation_r/value	/jointset/ankle_r/ankle_angle_r/value	/jointset/subtalar_r/subtalar_angle_r/value	/jointset/ground_pelvis/pelvis_tilt/speed	/jointset/ground_pelvis/pelvis_tx/speed	/jointset/ground_pelvis/pelvis_ty/speed	/jointset/hip_r/hip_flexion_r/speed	/jointset/hip_r/hip_adduction_r/speed	/jointset/hip_r/hip_rotation_r/speed	/jointset/back/lumbar_extension/speed	/jointset/patellofemoral_r/patellar_flexion_r/speed	/jointset/knee_r/knee_flexion_r/speed	/jointset/knee_r/knee_adduction_r/speed	/jointset/knee_r/knee_rotation_r/speed	/jointset/ankle_r/ankle_angle_r/speed	/jointset/subtalar_r/subtalar_angle_r/speed	/forceset/tau_hip_flexion_r	/forceset/tau_hip_adduction_r	/forceset/tau_hip_rotation_r	/forceset/tau_knee_flexion_r	/forceset/tau_ankle_angle_r	/forceset/tau_subtalar_angle_r	/forceset/tau_lumbar_extension	lambda_cid13_p0	lambda_cid14_p0	lambda_cid14_p1	lambda_cid14_p2	lambda_cid14_p3	lambda_cid14_p4	lambda_cid14_p5	/jointset/ground_pelvis/pelvis_tilt/accel	/jointset/ground_pelvis/pelvis_tx/accel	/jointset/ground_pelvis/pelvis_ty/accel	/jointset/hip_r/hip_flexion_r/accel	/jointset/hip_r/hip_adduction_r/accel	/jointset/hip_r/hip_rotation_r/accel	/jointset/back/lumbar_extension/accel	/jointset/patellofemoral_r/patellar_flexion_r/accel	/jointset/knee_r/knee_flexion_r/accel	/jointset/knee_r/knee_adduction_r/accel	/jointset/knee_r/knee_rotation_r/accel	/jointset/ankle_r/ankle_angle_r/accel	/jointset/subtalar_r/subtalar_angle_r/accel	gamma_cid13_p0	gamma_cid14_p0	gamma_cid14_p1	gamma_cid14_p2	gamma_cid14_p3	gamma_cid14_p4	gamma_cid14_p5
0	-0.003616782044187066	0.1298112763894619	0.9338634519390754	0.1934208783645156	-0.2224801337202382	-0.2428597110670529	-0.2903791543005566	0.2311793314021626	0.2311793314021609	0.1199640582193283	0.1710773404733431	0.08934340440958972	0.07095901892546075	0	0	0	0	0	0	0	0	0	0	0	0	0	0.1021873428238783	-0.06737872928062844	0.0007465378244938764	-0.2512983680890849	0.1396562477870654	-0.07151145447160935	-0.01949039182083087	-29.83119513194225	-0.8369177271450142	-26.63622532063041	-0.5489785901570682	-8.779430545353039	-616.8646719425116	56.38686589265485	-1.16016676786547	-1.384205183574285	-0.6851650729792472	7.838004602503504	0.2126671510387331	1.74212396256531	-5.779970787963815	8.700118262048173	8.700118262043679	-2.77780800439417	0.2983969088719085	2.73628631426062	1.052042243810793	3.250713124045056e-08	2.109487821181142e-08	-2.265739534724333e-07	1.95192735931722e-07	7.653411514556739e-09	1.1367832172519e-07	-2.296414660615057e-07
0.01	-0.003670251017561132	0.1297431983129498	0.9338301889425094	0.1938024072051643	-0.2224675805273685	-0.2427723452778955	-0.2906688046109183	0.2316061190989793	0.2316061190990349	0.1198233772997169	0.1710887880567099	0.08947851169250245	0.07101349047396502	-0.01066485833625207	-0.01352085014247441	-0.006633092462038178	0.07594210079905286	0.00249879262029634	0.01742675943453378	-0.05754779366708875	0.08496961320593152	0.08496961320591279	-0.02799971571071628	0.002231428505730846	0.02693823896254129	0.01085742356722286	0.09918397812207454	-0.0743492751238114	0.001002155181734144	-0.2491747027309902	0.13568744938668	-0.06436568963398352	-0.01658706019823674	-29.83577158603206	-1.767443459265944	-23.54884881193862	-1.208985278968746	-9.079054797453034	-618.3266159317193	62.65915971687478	-1.015305998935646	-1.321808625126193	-0.6494325694654589	7.417763292991558	0.2667093423629007	1.736030766095476	-5.684843395217029	8.33718742368014	8.337187423680113	-2.790600056705494	0.1768403880841674	2.66011466095856	1.097046920307677	5.161355038454197e-08	2.078614935683962e-08	-3.434300022658165e-07	2.631101766380447e-07	2.351364251369103e-08	4.347725859746588e-08	-3.283500929058103e-07
0.02	-0.003829500700784906	0.1295427549959042	0.933731184773993	0.1949324471486803	-0.2224303946033158	-0.2425120961279401	-0.2915224648057748	0.2328709638426952	0.2328709638426931	0.1194067898824691	0.1711208148383232	0.08988050575978943	0.07117542715956746	-0.02115614196970046	-0.02647304810669604	-0.01314823439011193	0.1497022205735273	0.004926546234147175	0.03457667215699724	-0.112801976899589	0.1676114093644393	0.1676114093644239	-0.05518129951322503	0.004115839677893468	0.05337735687338587	0.02149302741962642	0.09618061342023625	-0.08131982096711375	0.001257772538307048	-0.2470510373728934	0.1317186509862434	-0.05721992479650988	-0.01368372857560991	-29.84906010971724	-2.630374766474269	-20.46709850330732	-1.848149251003065	-9.356488637098799	-618.7055250350941	68.66497053584999	-1.125451827304651	-1.270474747923805	-0.6615749661863579	7.401608397587839	0.1984593497496228	1.686754620151245	-5.321248701046079	8.234554852563427	8.234554852563345	-2.614181622752644	0.2289934421582752	2.636462103921184	1.007678300846895	7.071996952863339e-08	2.047742050186782e-08	-4.602860510591998e-07	3.310276173443674e-07	3.937387351282531e-08	-2.67238045302582e-08	-4.27058719750115e-07
0.03	-0.004093042618815907	0.1292155922757024	0.9335673974419597	0.1967894751386257	-0.2223696746422057	-0.2420827240401288	-0.2929170267441519	0.2349507481575559	0.2349507481575212	0.1187232684611009	0.1711709502241804	0.09054421661364448	0.07144212712083695	-0.03151801892053922	-0.03886815744045855	-0.01960616785079606	0.2213336394138717	0.007184352429220342	0.05118649757750398	-0.1657435471673846	0.2479599382853404	0.2479599382853357	-0.08133920249738594	0.00590802884302591	0.07926748099289704	0.03178377849941723	0.09264009267634621	-0.07724212762189475	0.001419550791262723	-0.2447693830759341	0.1297402767923844	-0.058228363228883	-0.01046128276834485	-29.87047476099225	-3.334618958557668	-21.04819258688277	-1.732866494609564	-9.52514264059351	-619.2801896631615	66.73778124396799	-0.9864177541294989	-1.210320313482959	-0.63744853953643	6.988451308277878	0.2344752453977056	1.63147622764286	-5.225581648239601	7.877160393025626	7.877160393027251	-2.589065530284053	0.1539152174750469	2.550697632526277	1.030262432321199	6.578828040956735e-08	1.085072138412651e-08	-4.055575627170537e-07	3.36277265988952e-07	4.274409839255757e-08	-9.658781281153483e-08	-4.169537803972146e-07
0.04	-0.004459175731388275	0.1287672202046864	0.933339121574614	0.1993517258531763	-0.2222873698209462	-0.2414905777531878	-0.2948299984769273	0.2378224494578127	0.2378224494578074	0.1177836738310805	0.1712389242145365	0.09146391072200422	0.0718098323770596	-0.0416743808776083	-0.05071491826952221	-0.0260459414526161	0.2907467654950147	0.009243518264741676	0.06713151198370176	-0.2164839357788997	0.3259948064531268	0.3259948064531334	-0.1063959412430011	0.007683560559526278	0.1045740077748146	0.04169408641025096	0.08909957193245399	-0.07316443427663187	0.00158132904461828	-0.2424877287790027	0.1277619025985367	-0.05923680166120453	-0.007238836961093202	-29.89914215027092	-3.976986820553209	-21.6361002610386	-1.596339297062043	-9.680952755533553	-618.8616770236118	64.56430439021618	-1.084348828550628	-1.160805046984119	-0.6579429944135373	6.95794984574758	0.1587312778392546	1.553792417289449	-4.881012369789946	7.771822701940505	7.771822701940533	-2.393948775043481	0.225661952431871	2.51974263640236	0.9315896670554421	6.036096019229189e-08	1.031899168183755e-09	-3.472912488669585e-07	3.402347952095831e-07	4.58567973729207e-08	-1.664448715083486e-07	-4.046052623598357e-07
0.05	-0.004925997549436154	0.1282027385129278	0.933046360600131	0.2025977005783504	-0.2221857025149474	-0.2407429092446511	-0.2972392731376621	0.2414631246911668	0.2414631246911595	0.116599486066269	0.1713251836072817	0.09263322236271485	0.07227432674872102	-0.05164111629776947	-0.06212779399169759	-0.0325149484995103	0.358113873397354	0.01106755867716827	0.08232056317541712	-0.2650269200782529	0.4017537276715168	0.4017537276715167	-0.1302710101513926	0.00951531528082343	0.1291449713875528	0.05114314521705732	0.08380470461382301	-0.07069141920427108	0.00196225238889964	-0.2372388642196869	0.1200943014411106	-0.05689633693907423	-0.002935109072411179	-29.93417647899108	-6.287745240345102	-20.94413822524618	-1.798144913417584	-8.488302568735349	-618.742126052893	64.73496734936573	-0.9454985798459052	-1.123475724973266	-0.6427176716222411	6.575949292007394	0.1909033522978199	1.489280767469769	-4.789330016420749	7.419937921702933	7.419937921701886	-2.358712410919974	0.1540450731703711	2.404275204306131	0.9423044313158158	5.560468175529424e-08	-5.550849567589791e-09	-2.996266119458901e-07	3.111352929771893e-07	4.688828407655317e-08	-2.244829736955417e-07	-3.631058692828292e-07
